<svg xmlns:xlink="http://www.w3.org/1999/xlink" xmlns="http://www.w3.org/2000/svg" xml:space="preserve" viewBox="0 0.5 100.75 100" y="0px" x="0px" version="1.1" style="max-height: 500px" width="100.75" height="100" transform="matrix(1, 0, 0, 1, 0, 0)"><g display="none"><circle r="45" cy="50" cx="50" fill="#d4b8b8" display="inline"/></g><g><polygon points="55,15 65,15 65,5 55,5 45,5 35,5 35,15 45,15" fill="#f85830"/><polygon points="25,25 35,25 35,15 25,15 15,15 15,25 15,35 25,35" fill="#f85830"/><polygon points="15,45 15,35 5,35 5,45 5,55 5,65 15,65 15,55" fill="#f85830"/><polygon points="25,75 25,65 15,65 15,75 15,85 25,85 35,85 35,75" fill="#f85830"/><polygon points="45,85 35,85 35,95 45,95 55,95 65,95 65,85 55,85" fill="#f85830"/><polygon points="75,75 65,75 65,85 75,85 85,85 85,75 85,65 75,65" fill="#f85830"/><polygon points="85,45 85,55 85,65 95,65 95,55 95,45 95,35 85,35" fill="#f85830"/><polygon points="75,25 75,35 85,35 85,25 85,15 75,15 65,15 65,25" fill="#f85830"/></g><text font-family="'Helvetica Neue', Helvetica, Arial-Unicode, Arial, Sans-serif" font-weight="bold" font-size="5px" fill="#d4b8b8" y="115" x="0">Created by Louis Dawson</text><text font-family="'Helvetica Neue', Helvetica, Arial-Unicode, Arial, Sans-serif" font-weight="bold" font-size="5px" fill="#d4b8b8" y="120" x="0">from the Noun Project</text></svg>