<svg
  xmlns="http://www.w3.org/2000/svg"
  viewBox="0 0 20 20"
  id="Pet-Animals-Frog-Face--Streamline-Pixel"
  height="20"
  width="20"
>
  <desc>
    Pet Animals Frog Face Streamline Icon: https://streamlinehq.com
  </desc>
  <title>pet-animals-frog-face</title>
  <g>
    <path
      d="M19.05 9.525H20v4.7625h-0.95Z"
      fill="#f85830"
      stroke-width="0.625"
    ></path>
    <path
      d="M18.09375 14.2875h0.95625v1.9h-0.95625Z"
      fill="#f85830"
      stroke-width="0.625"
    ></path>
    <path
      d="M18.09375 8.568750000000001h0.95625v0.95625h-0.95625Z"
      fill="#f85830"
      stroke-width="0.625"
    ></path>
    <path
      d="M18.09375 2.85625h0.95625v4.7625h-0.95625Z"
      fill="#f85830"
      stroke-width="0.625"
    ></path>
    <path
      d="M17.14375 16.1875h0.95v0.95625h-0.95Z"
      fill="#f85830"
      stroke-width="0.625"
    ></path>
    <path
      d="M17.14375 7.6187499999999995h0.95v0.95h-0.95Z"
      fill="#f85830"
      stroke-width="0.625"
    ></path>
    <path
      d="M17.14375 1.90625h0.95v0.95h-0.95Z"
      fill="#f85830"
      stroke-width="0.625"
    ></path>
    <path
      d="M17.14375 3.80625h-0.95V2.85625h-2.85625v0.95h-0.95625v2.8625h0.95625v0.95h2.85625v-0.95h0.95Zm-1.90625 0.95625h-0.95V3.80625h0.95Z"
      fill="#f85830"
      stroke-width="0.625"
    ></path>
    <path
      d="M15.237499999999999 17.14375h1.90625v0.95h-1.90625Z"
      fill="#f85830"
      stroke-width="0.625"
    ></path>
    <path
      d="M4.7625 18.09375h10.475000000000001v0.95625H4.7625Z"
      fill="#f85830"
      stroke-width="0.625"
    ></path>
    <path
      d="M12.38125 0.95h4.7625v0.95625h-4.7625Z"
      fill="#f85830"
      stroke-width="0.625"
    ></path>
    <path
      d="M11.431249999999999 9.525h0.95v0.95h-0.95Z"
      fill="#f85830"
      stroke-width="0.625"
    ></path>
    <path
      d="M11.431249999999999 1.90625h0.95v0.95h-0.95Z"
      fill="#f85830"
      stroke-width="0.625"
    ></path>
    <path
      d="M10.475000000000001 7.6187499999999995h0.95625v0.95h-0.95625Z"
      fill="#f85830"
      stroke-width="0.625"
    ></path>
    <path
      d="M10.475000000000001 2.85625h0.95625v1.90625h-0.95625Z"
      fill="#f85830"
      stroke-width="0.625"
    ></path>
    <path
      d="M9.525 10.475000000000001h1.90625v0.95h-1.90625Z"
      fill="#f85830"
      stroke-width="0.625"
    ></path>
    <path
      d="M9.525 4.7625h0.95v0.95h-0.95Z"
      fill="#f85830"
      stroke-width="0.625"
    ></path>
    <path
      d="M8.575000000000001 7.6187499999999995h0.95v0.95h-0.95Z"
      fill="#f85830"
      stroke-width="0.625"
    ></path>
    <path
      d="M8.575000000000001 2.85625h0.95v1.90625h-0.95Z"
      fill="#f85830"
      stroke-width="0.625"
    ></path>
    <path
      d="M7.6187499999999995 1.90625h0.95625v0.95h-0.95625Z"
      fill="#f85830"
      stroke-width="0.625"
    ></path>
    <path
      d="M6.66875 2.85625H3.8125v0.95H2.85625v2.8625H3.8125v0.95h2.85625v-0.95h0.95V3.80625h-0.95ZM5.71875 4.7625H4.7625V3.80625h0.95625Z"
      fill="#f85830"
      stroke-width="0.625"
    ></path>
    <path
      d="M2.85625 17.14375h1.90625v0.95H2.85625Z"
      fill="#f85830"
      stroke-width="0.625"
    ></path>
    <path
      d="M2.85625 0.95h4.7625v0.95625H2.85625Z"
      fill="#f85830"
      stroke-width="0.625"
    ></path>
    <path
      d="M1.90625 16.1875h0.95v0.95625H1.90625Z"
      fill="#f85830"
      stroke-width="0.625"
    ></path>
    <path
      d="M1.90625 7.6187499999999995h0.95v0.95H1.90625Z"
      fill="#f85830"
      stroke-width="0.625"
    ></path>
    <path
      d="M1.90625 1.90625h0.95v0.95H1.90625Z"
      fill="#f85830"
      stroke-width="0.625"
    ></path>
    <path
      d="M0.95625 14.2875h0.95v1.9H0.95625Z"
      fill="#f85830"
      stroke-width="0.625"
    ></path>
    <path
      d="M0.95625 8.568750000000001h0.95v0.95625H0.95625Z"
      fill="#f85830"
      stroke-width="0.625"
    ></path>
    <path
      d="M0.95625 2.85625h0.95v4.7625H0.95625Z"
      fill="#f85830"
      stroke-width="0.625"
    ></path>
    <path
      d="M0 9.525h0.95625v4.7625H0Z"
      fill="#f85830"
      stroke-width="0.625"
    ></path>
  </g>
</svg>
