<svg
  xmlns="http://www.w3.org/2000/svg"
  viewBox="0 0 24 24"
  id="Pet-Animals-Cat--Streamline-Pixel"
  height="20px"
  width="20px"
>
  <desc>Pet Animals Cat Streamline Icon: https://streamlinehq.com</desc>
  <title>pet-animals-cat</title>
  <g>
    <path
      d="m22.86 9.71625 -1.1475 0 0 3.4275 -2.2800000000000002 0 0 1.1475 2.2800000000000002 0 0 1.1400000000000001 -2.2800000000000002 0 0 1.1400000000000001 2.2800000000000002 0 0 1.1475 1.1475 0 0 -1.1475 1.1400000000000001 0 0 -1.1400000000000001 -1.1400000000000001 0 0 -1.1400000000000001 1.1400000000000001 0 0 -1.1475 -1.1400000000000001 0 0 -3.4275z"
      fill="#f85830"
      stroke-width="0.75"
    ></path>
    <path
      d="M20.572499999999998 17.71875h1.1400000000000001v1.1400000000000001h-1.1400000000000001Z"
      fill="#f85830"
      stroke-width="0.75"
    ></path>
    <path
      d="M20.572499999999998 7.428749999999999h1.1400000000000001v2.2874999999999996h-1.1400000000000001Z"
      fill="#f85830"
      stroke-width="0.75"
    ></path>
    <path
      d="M19.4325 18.85875h1.1400000000000001v1.1475h-1.1400000000000001Z"
      fill="#f85830"
      stroke-width="0.75"
    ></path>
    <path
      d="M19.4325 5.14875h1.1400000000000001v2.2800000000000002h-1.1400000000000001Z"
      fill="#f85830"
      stroke-width="0.75"
    ></path>
    <path
      d="M18.285 2.86125h1.1475v2.2874999999999996h-1.1475Z"
      fill="#f85830"
      stroke-width="0.75"
    ></path>
    <path
      d="M17.145 20.00625h2.2874999999999996v1.1400000000000001h-2.2874999999999996Z"
      fill="#f85830"
      stroke-width="0.75"
    ></path>
    <path
      d="M17.145 16.57125h1.1400000000000001v1.1475h-1.1400000000000001Z"
      fill="#f85830"
      stroke-width="0.75"
    ></path>
    <path
      d="M17.145 14.29125h1.1400000000000001v1.1400000000000001h-1.1400000000000001Z"
      fill="#f85830"
      stroke-width="0.75"
    ></path>
    <path
      d="M17.145 1.71375h1.1400000000000001v1.1475h-1.1400000000000001Z"
      fill="#f85830"
      stroke-width="0.75"
    ></path>
    <path
      d="M16.005 2.86125h1.1400000000000001v1.1400000000000001h-1.1400000000000001Z"
      fill="#f85830"
      stroke-width="0.75"
    ></path>
    <path
      d="M6.862500000000001 21.146250000000002h10.2825v1.1400000000000001H6.862500000000001Z"
      fill="#f85830"
      stroke-width="0.75"
    ></path>
    <path
      d="M14.857499999999998 6.28875h1.1475v2.2874999999999996h-1.1475Z"
      fill="#f85830"
      stroke-width="0.75"
    ></path>
    <path
      d="M14.857499999999998 4.00125h1.1475v1.1475h-1.1475Z"
      fill="#f85830"
      stroke-width="0.75"
    ></path>
    <path
      d="M13.7175 10.85625h1.1400000000000001v1.1475h-1.1400000000000001Z"
      fill="#f85830"
      stroke-width="0.75"
    ></path>
    <path
      d="M12.57 16.57125h1.1475v1.1475h-1.1475Z"
      fill="#f85830"
      stroke-width="0.75"
    ></path>
    <path
      d="m9.1425 13.143749999999999 0 1.1475 1.1475 0 0 1.1400000000000001 2.2800000000000002 0 0 -1.1400000000000001 1.1475 0 0 -1.1475 -4.574999999999999 0z"
      fill="#f85830"
      stroke-width="0.75"
    ></path>
    <path
      d="M10.290000000000001 17.71875h2.2800000000000002v1.1400000000000001h-2.2800000000000002Z"
      fill="#f85830"
      stroke-width="0.75"
    ></path>
    <path
      d="m11.43 6.28875 0 2.2874999999999996 1.1400000000000001 0 0 -2.2874999999999996 2.2874999999999996 0 0 -1.1400000000000001 -5.715 0 0 1.1400000000000001 2.2874999999999996 0z"
      fill="#f85830"
      stroke-width="0.75"
    ></path>
    <path
      d="M8.0025 10.85625h1.1400000000000001v1.1475h-1.1400000000000001Z"
      fill="#f85830"
      stroke-width="0.75"
    ></path>
    <path
      d="M8.0025 6.28875h1.1400000000000001v2.2874999999999996h-1.1400000000000001Z"
      fill="#f85830"
      stroke-width="0.75"
    ></path>
    <path
      d="M8.0025 4.00125h1.1400000000000001v1.1475h-1.1400000000000001Z"
      fill="#f85830"
      stroke-width="0.75"
    ></path>
    <path
      d="M6.862500000000001 2.86125h1.1400000000000001v1.1400000000000001H6.862500000000001Z"
      fill="#f85830"
      stroke-width="0.75"
    ></path>
    <path
      d="M4.574999999999999 20.00625h2.2874999999999996v1.1400000000000001H4.574999999999999Z"
      fill="#f85830"
      stroke-width="0.75"
    ></path>
    <path
      d="M5.715 16.57125h1.1475v1.1475H5.715Z"
      fill="#f85830"
      stroke-width="0.75"
    ></path>
    <path
      d="M5.715 14.29125h1.1475v1.1400000000000001H5.715Z"
      fill="#f85830"
      stroke-width="0.75"
    ></path>
    <path
      d="M5.715 1.71375h1.1475v1.1475H5.715Z"
      fill="#f85830"
      stroke-width="0.75"
    ></path>
    <path
      d="M4.574999999999999 2.86125h1.1400000000000001v2.2874999999999996H4.574999999999999Z"
      fill="#f85830"
      stroke-width="0.75"
    ></path>
    <path
      d="M3.4275 18.85875H4.574999999999999v1.1475H3.4275Z"
      fill="#f85830"
      stroke-width="0.75"
    ></path>
    <path
      d="M3.4275 5.14875H4.574999999999999v2.2800000000000002H3.4275Z"
      fill="#f85830"
      stroke-width="0.75"
    ></path>
    <path
      d="M2.2874999999999996 17.71875h1.1400000000000001v1.1400000000000001H2.2874999999999996Z"
      fill="#f85830"
      stroke-width="0.75"
    ></path>
    <path
      d="m4.574999999999999 16.57125 0 -1.1400000000000001 -2.2874999999999996 0 0 -1.1400000000000001 2.2874999999999996 0 0 -1.1475 -2.2874999999999996 0 0 -3.4275 -1.1400000000000001 0 0 3.4275 -1.1475 0 0 1.1475 1.1475 0 0 1.1400000000000001 -1.1475 0 0 1.1400000000000001 1.1475 0 0 1.1475 1.1400000000000001 0 0 -1.1475 2.2874999999999996 0z"
      fill="#f85830"
      stroke-width="0.75"
    ></path>
    <path
      d="M2.2874999999999996 7.428749999999999h1.1400000000000001v2.2874999999999996H2.2874999999999996Z"
      fill="#f85830"
      stroke-width="0.75"
    ></path>
  </g>
</svg>
