<svg
  xmlns="http://www.w3.org/2000/svg"
  viewBox="0 0 20 20"
  id="Technology-Robot-Ai--Streamline-Pixel"
  height="20"
  width="20"
>
  <desc>
    Technology Robot Ai Streamline Icon: https://streamlinehq.com
  </desc>
  <title>technology-robot-ai</title>
  <g>
    <path
      d="m19.04375 11.425 0 -6.6625 -0.95 0 0 5.7125 -0.95 0 0 -0.95 -0.95625 0 0 7.6187499999999995 0.95625 0 0 -0.95625 1.9 0 0 -0.95 0.95625 0 0 -3.8125 -0.95625 0z"
      fill="#f85830"
      stroke-width="0.625"
    ></path>
    <path
      d="M15.237499999999999 7.6187499999999995h0.95v1.90625h-0.95Z"
      fill="#f85830"
      stroke-width="0.625"
    ></path>
    <path
      d="m3.80625 17.14375 0 0.95 0.95625 0 0 0.95625 0.95 0 0 -0.95625 8.568750000000001 0 0 0.95625 0.95625 0 0 -0.95625 0.95 0 0 -0.95 -12.38125 0z"
      fill="#f85830"
      stroke-width="0.625"
    ></path>
    <path
      d="M14.28125 11.425h0.95625v1.90625h-0.95625Z"
      fill="#f85830"
      stroke-width="0.625"
    ></path>
    <path
      d="M14.28125 6.66875h0.95625v0.95h-0.95625Z"
      fill="#f85830"
      stroke-width="0.625"
    ></path>
    <path
      d="M12.38125 10.475000000000001h1.9v0.95h-1.9Z"
      fill="#f85830"
      stroke-width="0.625"
    ></path>
    <path
      d="M5.7125 19.05h8.568750000000001V20H5.7125Z"
      fill="#f85830"
      stroke-width="0.625"
    ></path>
    <path
      d="M12.38125 13.331249999999999h1.9v0.95625h-1.9Z"
      fill="#f85830"
      stroke-width="0.625"
    ></path>
    <path
      d="M11.425 11.425h0.95625v1.90625h-0.95625Z"
      fill="#f85830"
      stroke-width="0.625"
    ></path>
    <path
      d="M11.425 0.95h0.95625v0.95625h-0.95625Z"
      fill="#f85830"
      stroke-width="0.625"
    ></path>
    <path
      d="M8.568750000000001 15.237499999999999h2.85625v0.95h-2.85625Z"
      fill="#f85830"
      stroke-width="0.625"
    ></path>
    <path
      d="M8.568750000000001 0h2.85625v0.95h-2.85625Z"
      fill="#f85830"
      stroke-width="0.625"
    ></path>
    <path
      d="M7.6187499999999995 11.425h0.95v1.90625h-0.95Z"
      fill="#f85830"
      stroke-width="0.625"
    ></path>
    <path
      d="M7.6187499999999995 0.95h0.95v0.95625h-0.95Z"
      fill="#f85830"
      stroke-width="0.625"
    ></path>
    <path
      d="M5.7125 10.475000000000001h1.90625v0.95H5.7125Z"
      fill="#f85830"
      stroke-width="0.625"
    ></path>
    <path
      d="m14.28125 6.66875 0 -0.95625 -3.80625 0 0 -2.85625 0.95 0 0 -0.95 -2.85625 0 0 0.95 0.95 0 0 2.85625 -3.80625 0 0 0.95625 8.568750000000001 0z"
      fill="#f85830"
      stroke-width="0.625"
    ></path>
    <path
      d="M5.7125 13.331249999999999h1.90625v0.95625H5.7125Z"
      fill="#f85830"
      stroke-width="0.625"
    ></path>
    <path
      d="M4.7625 11.425h0.95v1.90625H4.7625Z"
      fill="#f85830"
      stroke-width="0.625"
    ></path>
    <path
      d="M4.7625 6.66875h0.95v0.95H4.7625Z"
      fill="#f85830"
      stroke-width="0.625"
    ></path>
    <path
      d="M3.80625 7.6187499999999995h0.95625v1.90625H3.80625Z"
      fill="#f85830"
      stroke-width="0.625"
    ></path>
    <path
      d="m3.80625 9.525 -0.95 0 0 0.95 -0.95625 0 0 -5.7125 -0.95 0 0 6.6625 -0.95 0 0 3.8125 0.95 0 0 0.95 1.90625 0 0 0.95625 0.95 0 0 -7.6187499999999995z"
      fill="#f85830"
      stroke-width="0.625"
    ></path>
  </g>
</svg>
