<svg
  xmlns="http://www.w3.org/2000/svg"
  viewBox="0 0 20 20"
  id="Business-Products-Deal-Handshake--Streamline-Pixel"
  height="20"
  width="20"
>
  <desc>
    Business Products Deal Handshake Streamline Icon: https://streamlinehq.com
  </desc>
  <title>business-products-deal-handshake</title>
  <g>
    <path
      d="M19.05 4.7625H20v0.95h-0.95Z"
      fill="#f85830"
      stroke-width="0.625"
    ></path>
    <path
      d="m17.14375 9.525 0 0.95 -1.9 0 0 0.95625 1.9 0 0 5.7125 -3.80625 0 0 0.95 3.80625 0 0 0.95625 2.85625 0 0 -9.525 -2.85625 0z"
      fill="#f85830"
      stroke-width="0.625"
    ></path>
    <path
      d="M18.1 5.7125h0.95v0.95625h-0.95Z"
      fill="#f85830"
      stroke-width="0.625"
    ></path>
    <path
      d="M17.14375 4.7625h0.95625v0.95h-0.95625Z"
      fill="#f85830"
      stroke-width="0.625"
    ></path>
    <path
      d="M16.19375 5.7125h0.95v0.95625h-0.95Z"
      fill="#f85830"
      stroke-width="0.625"
    ></path>
    <path
      d="M16.19375 0.95625h0.95v0.95h-0.95Z"
      fill="#f85830"
      stroke-width="0.625"
    ></path>
    <path
      d="M15.24375 4.7625h0.95v0.95h-0.95Z"
      fill="#f85830"
      stroke-width="0.625"
    ></path>
    <path
      d="M14.2875 9.525h0.95625v0.95h-0.95625Z"
      fill="#f85830"
      stroke-width="0.625"
    ></path>
    <path
      d="M13.3375 8.575000000000001h0.95v0.95h-0.95Z"
      fill="#f85830"
      stroke-width="0.625"
    ></path>
    <path
      d="m13.3375 14.2875 -0.95625 0 0 1.90625 -1.9 0 0 1.9 0.95 0 0 -0.95 1.90625 0 0 -2.85625z"
      fill="#f85830"
      stroke-width="0.625"
    ></path>
    <path
      d="M11.431249999999999 13.3375h0.95v0.95h-0.95Z"
      fill="#f85830"
      stroke-width="0.625"
    ></path>
    <path
      d="M11.431249999999999 1.90625h0.95v0.95h-0.95Z"
      fill="#f85830"
      stroke-width="0.625"
    ></path>
    <path
      d="M10.48125 12.38125h0.95v0.95625h-0.95Z"
      fill="#f85830"
      stroke-width="0.625"
    ></path>
    <path
      d="M10.48125 10.475000000000001h0.95v0.95625h-0.95Z"
      fill="#f85830"
      stroke-width="0.625"
    ></path>
    <path
      d="M9.525 7.6187499999999995h3.8125v0.95625h-3.8125Z"
      fill="#f85830"
      stroke-width="0.625"
    ></path>
    <path
      d="M10.48125 2.85625h0.95V3.8125h-0.95Z"
      fill="#f85830"
      stroke-width="0.625"
    ></path>
    <path
      d="M10.48125 0.95625h0.95v0.95h-0.95Z"
      fill="#f85830"
      stroke-width="0.625"
    ></path>
    <path
      d="M9.525 15.237499999999999h0.95625v0.95625h-0.95625Z"
      fill="#f85830"
      stroke-width="0.625"
    ></path>
    <path
      d="M9.525 11.431249999999999h0.95625v0.95h-0.95625Z"
      fill="#f85830"
      stroke-width="0.625"
    ></path>
    <path
      d="M9.525 1.90625h0.95625v0.95h-0.95625Z"
      fill="#f85830"
      stroke-width="0.625"
    ></path>
    <path
      d="m8.575000000000001 19.05 -2.85625 0 0 0.95 3.80625 0 0 -0.95 0.95625 0 0 -0.95625 -1.90625 0 0 0.95625z"
      fill="#f85830"
      stroke-width="0.625"
    ></path>
    <path
      d="M8.575000000000001 8.575000000000001h0.95v0.95h-0.95Z"
      fill="#f85830"
      stroke-width="0.625"
    ></path>
    <path
      d="M7.6187499999999995 17.14375h0.95625v0.95h-0.95625Z"
      fill="#f85830"
      stroke-width="0.625"
    ></path>
    <path
      d="M7.6187499999999995 12.38125h1.90625v0.95625h-1.90625Z"
      fill="#f85830"
      stroke-width="0.625"
    ></path>
    <path
      d="M7.6187499999999995 9.525h0.95625v0.95h-0.95625Z"
      fill="#f85830"
      stroke-width="0.625"
    ></path>
    <path
      d="M6.66875 7.6187499999999995h1.90625v0.95625h-1.90625Z"
      fill="#f85830"
      stroke-width="0.625"
    ></path>
    <path
      d="M6.66875 16.19375h0.95v0.95h-0.95Z"
      fill="#f85830"
      stroke-width="0.625"
    ></path>
    <path
      d="M6.66875 10.475000000000001h0.95v1.90625h-0.95Z"
      fill="#f85830"
      stroke-width="0.625"
    ></path>
    <path
      d="M6.66875 3.8125h0.95v0.95h-0.95Z"
      fill="#f85830"
      stroke-width="0.625"
    ></path>
    <path
      d="M5.71875 8.575000000000001h0.95v0.95H5.71875Z"
      fill="#f85830"
      stroke-width="0.625"
    ></path>
    <path
      d="M4.7625 18.09375h0.95625v0.95625H4.7625Z"
      fill="#f85830"
      stroke-width="0.625"
    ></path>
    <path
      d="M4.7625 9.525h0.95625v0.95H4.7625Z"
      fill="#f85830"
      stroke-width="0.625"
    ></path>
    <path
      d="m2.8625 17.14375 0 -5.7125 1.9 0 0 -0.95625 -1.9 0 0 -0.95 -2.8625 0 0 9.525 2.8625 0 0 -0.95625 1.9 0 0 -0.95 -1.9 0z"
      fill="#f85830"
      stroke-width="0.625"
    ></path>
    <path
      d="M3.8125 0h0.95v0.95625H3.8125Z"
      fill="#f85830"
      stroke-width="0.625"
    ></path>
    <path
      d="m2.8625 7.6187499999999995 0 -0.95 0.95 0 0 -0.95625 -0.95 0 0 -0.95 -0.95625 0 0 0.95 -0.95 0 0 0.95625 0.95 0 0 0.95 0.95625 0z"
      fill="#f85830"
      stroke-width="0.625"
    ></path>
  </g>
</svg>
